<svg xmlns="http://www.w3.org/2000/svg" version="1.1" xmlns:xlink="http://www.w3.org/1999/xlink" xmlns:svgjs="http://svgjs.com/svgjs" width="114" height="83"><svg width="114" height="83" viewBox="0 0 114 83" fill="none" xmlns="http://www.w3.org/2000/svg">
<g filter="url(#filter0_b_101_2)">
<path d="M45.0355 4.94975L78.0502 37.9645C80.0029 39.9171 80.0029 43.0829 78.0503 45.0355L45.0355 78.0502C43.0829 80.0029 39.9171 80.0029 37.9645 78.0503L4.94975 45.0355C2.99713 43.0829 2.99713 39.9171 4.94975 37.9645L37.9645 4.94975C39.9171 2.99713 43.0829 2.99713 45.0355 4.94975Z" stroke="#D8587E" stroke-width="2"></path>
</g>
<path d="M40.144 29.536V33.92H34.192V52H28.72V33.92H22.768V29.536H40.144ZM54.7943 52.224C52.6823 52.224 50.7409 51.7333 48.9703 50.752C47.2209 49.7707 45.8236 48.4053 44.7783 46.656C43.7543 44.8853 43.2423 42.9013 43.2423 40.704C43.2423 38.5067 43.7543 36.5333 44.7783 34.784C45.8236 33.0347 47.2209 31.6693 48.9703 30.688C50.7409 29.7067 52.6823 29.216 54.7943 29.216C56.9063 29.216 58.8369 29.7067 60.5863 30.688C62.3569 31.6693 63.7436 33.0347 64.7463 34.784C65.7703 36.5333 66.2823 38.5067 66.2823 40.704C66.2823 42.9013 65.7703 44.8853 64.7463 46.656C63.7223 48.4053 62.3356 49.7707 60.5863 50.752C58.8369 51.7333 56.9063 52.224 54.7943 52.224ZM54.7943 47.232C56.5863 47.232 58.0156 46.6347 59.0823 45.44C60.1703 44.2453 60.7143 42.6667 60.7143 40.704C60.7143 38.72 60.1703 37.1413 59.0823 35.968C58.0156 34.7733 56.5863 34.176 54.7943 34.176C52.9809 34.176 51.5303 34.7627 50.4423 35.936C49.3756 37.1093 48.8423 38.6987 48.8423 40.704C48.8423 42.688 49.3756 44.2773 50.4423 45.472C51.5303 46.6453 52.9809 47.232 54.7943 47.232ZM86.7665 29.536V33.92H80.8145V52H75.3425V33.92H69.3905V29.536H86.7665ZM89.8647 40.736C89.8647 38.5173 90.3447 36.544 91.3047 34.816C92.2647 33.0667 93.5981 31.712 95.3047 30.752C97.0327 29.7707 98.9847 29.28 101.161 29.28C103.827 29.28 106.11 29.984 108.009 31.392C109.907 32.8 111.177 34.72 111.817 37.152H105.801C105.353 36.2133 104.713 35.4987 103.881 35.008C103.07 34.5173 102.142 34.272 101.097 34.272C99.4114 34.272 98.0461 34.8587 97.0007 36.032C95.9554 37.2053 95.4327 38.7733 95.4327 40.736C95.4327 42.6987 95.9554 44.2667 97.0007 45.44C98.0461 46.6133 99.4114 47.2 101.097 47.2C102.142 47.2 103.07 46.9547 103.881 46.464C104.713 45.9733 105.353 45.2587 105.801 44.32H111.817C111.177 46.752 109.907 48.672 108.009 50.08C106.11 51.4667 103.827 52.16 101.161 52.16C98.9847 52.16 97.0327 51.68 95.3047 50.72C93.5981 49.7387 92.2647 48.384 91.3047 46.656C90.3447 44.928 89.8647 42.9547 89.8647 40.736Z" fill="#00FFF0"></path>
<path d="M40.144 29.536H41.144V28.536H40.144V29.536ZM40.144 33.92V34.92H41.144V33.92H40.144ZM34.192 33.92V32.92H33.192V33.92H34.192ZM34.192 52V53H35.192V52H34.192ZM28.72 52H27.72V53H28.72V52ZM28.72 33.92H29.72V32.92H28.72V33.92ZM22.768 33.92H21.768V34.92H22.768V33.92ZM22.768 29.536V28.536H21.768V29.536H22.768ZM39.144 29.536V33.92H41.144V29.536H39.144ZM40.144 32.92H34.192V34.92H40.144V32.92ZM33.192 33.92V52H35.192V33.92H33.192ZM34.192 51H28.72V53H34.192V51ZM29.72 52V33.92H27.72V52H29.72ZM28.72 32.92H22.768V34.92H28.72V32.92ZM23.768 33.92V29.536H21.768V33.92H23.768ZM22.768 30.536H40.144V28.536H22.768V30.536ZM48.9703 50.752L48.481 51.6242L48.4855 51.6267L48.9703 50.752ZM44.7783 46.656L43.9126 47.1566L43.9162 47.1628L43.9198 47.169L44.7783 46.656ZM44.7783 34.784L43.9198 34.271L43.9152 34.2788L44.7783 34.784ZM48.9703 30.688L48.4855 29.8133L48.481 29.8159L48.9703 30.688ZM60.5863 30.688L60.097 31.5602L60.1015 31.5627L60.5863 30.688ZM64.7463 34.784L63.8786 35.2813L63.8832 35.2892L64.7463 34.784ZM64.7463 46.656L65.6093 47.1612L65.6119 47.1566L64.7463 46.656ZM60.5863 50.752L61.0755 51.6241L61.0755 51.6241L60.5863 50.752ZM59.0823 45.44L58.3429 44.7666L58.3363 44.774L59.0823 45.44ZM59.0823 35.968L58.3363 36.634L58.3426 36.641L58.349 36.6479L59.0823 35.968ZM50.4423 35.936L49.7089 35.256L49.7023 35.2633L50.4423 35.936ZM50.4423 45.472L49.6963 46.138L49.7026 46.145L49.709 46.1519L50.4423 45.472ZM54.7943 51.224C52.8442 51.224 51.0708 50.7729 49.455 49.8773L48.4855 51.6267C50.411 52.6938 52.5203 53.224 54.7943 53.224V51.224ZM49.4595 49.8799C47.865 48.9854 46.5939 47.745 45.6367 46.143L43.9198 47.169C45.0532 49.0657 46.5768 50.5559 48.481 51.6241L49.4595 49.8799ZM45.6439 46.1554C44.7144 44.5481 44.2423 42.7391 44.2423 40.704H42.2423C42.2423 43.0636 42.7941 45.2225 43.9126 47.1566L45.6439 46.1554ZM44.2423 40.704C44.2423 38.6688 44.7144 36.8725 45.6413 35.2892L43.9152 34.2788C42.7941 36.1942 42.2423 38.3445 42.2423 40.704H44.2423ZM45.6367 35.297C46.5939 33.695 47.865 32.4546 49.4595 31.5601L48.481 29.8159C46.5768 30.8841 45.0532 32.3743 43.9198 34.271L45.6367 35.297ZM49.455 31.5627C51.0708 30.6671 52.8442 30.216 54.7943 30.216V28.216C52.5203 28.216 50.411 28.7462 48.4855 29.8133L49.455 31.5627ZM54.7943 30.216C56.7443 30.216 58.5051 30.6671 60.097 31.5601L61.0755 29.8159C59.1687 28.7462 57.0682 28.216 54.7943 28.216V30.216ZM60.1015 31.5627C61.7132 32.4559 62.9672 33.691 63.8787 35.2813L65.6138 34.2867C64.52 32.3783 63.0007 30.8828 61.071 29.8133L60.1015 31.5627ZM63.8832 35.2892C64.8101 36.8725 65.2823 38.6688 65.2823 40.704H67.2823C67.2823 38.3445 66.7304 36.1942 65.6093 34.2788L63.8832 35.2892ZM65.2823 40.704C65.2823 42.7391 64.8101 44.5482 63.8806 46.1554L65.6119 47.1566C66.7304 45.2225 67.2823 43.0636 67.2823 40.704H65.2823ZM63.8832 46.1508C62.948 47.7485 61.6896 48.9864 60.097 49.8799L61.0755 51.6241C62.9815 50.5549 64.4965 49.0622 65.6093 47.1612L63.8832 46.1508ZM60.097 49.8799C58.5051 50.7729 56.7443 51.224 54.7943 51.224V53.224C57.0682 53.224 59.1687 52.6938 61.0755 51.6241L60.097 49.8799ZM54.7943 48.232C56.8334 48.232 58.548 47.5398 59.8282 46.106L58.3363 44.774C57.4831 45.7296 56.3391 46.232 54.7943 46.232V48.232ZM59.8216 46.1133C61.1116 44.6968 61.7143 42.8595 61.7143 40.704H59.7143C59.7143 42.4738 59.2289 43.7939 58.3429 44.7667L59.8216 46.1133ZM61.7143 40.704C61.7143 38.5312 61.1137 36.688 59.8155 35.2881L58.349 36.6479C59.2268 37.5946 59.7143 38.9088 59.7143 40.704H61.7143ZM59.8282 35.302C58.548 33.8682 56.8334 33.176 54.7943 33.176V35.176C56.3391 35.176 57.4831 35.6784 58.3363 36.634L59.8282 35.302ZM54.7943 33.176C52.7435 33.176 51.0123 33.8505 49.709 35.2561L51.1755 36.6159C52.0482 35.6748 53.2183 35.176 54.7943 35.176V33.176ZM49.7023 35.2633C48.4274 36.6657 47.8423 38.5182 47.8423 40.704H49.8423C49.8423 38.8792 50.3237 37.553 51.1822 36.6087L49.7023 35.2633ZM47.8423 40.704C47.8423 42.8726 48.4294 44.7191 49.6963 46.138L51.1882 44.806C50.3217 43.8355 49.8423 42.5034 49.8423 40.704H47.8423ZM49.709 46.1519C51.0123 47.5575 52.7435 48.232 54.7943 48.232V46.232C53.2183 46.232 52.0482 45.7332 51.1755 44.7921L49.709 46.1519ZM86.7665 29.536H87.7665V28.536H86.7665V29.536ZM86.7665 33.92V34.92H87.7665V33.92H86.7665ZM80.8145 33.92V32.92H79.8145V33.92H80.8145ZM80.8145 52V53H81.8145V52H80.8145ZM75.3425 52H74.3425V53H75.3425V52ZM75.3425 33.92H76.3425V32.92H75.3425V33.92ZM69.3905 33.92H68.3905V34.92H69.3905V33.92ZM69.3905 29.536V28.536H68.3905V29.536H69.3905ZM85.7665 29.536V33.92H87.7665V29.536H85.7665ZM86.7665 32.92H80.8145V34.92H86.7665V32.92ZM79.8145 33.92V52H81.8145V33.92H79.8145ZM80.8145 51H75.3425V53H80.8145V51ZM76.3425 52V33.92H74.3425V52H76.3425ZM75.3425 32.92H69.3905V34.92H75.3425V32.92ZM70.3905 33.92V29.536H68.3905V33.92H70.3905ZM69.3905 30.536H86.7665V28.536H69.3905V30.536ZM91.3047 34.816L92.1789 35.3016L92.1814 35.2971L91.3047 34.816ZM95.3047 30.752L95.795 31.6236L95.7986 31.6216L95.3047 30.752ZM108.009 31.392L108.604 30.5888L108.604 30.5888L108.009 31.392ZM111.817 37.152V38.152H113.114L112.784 36.8975L111.817 37.152ZM105.801 37.152L104.898 37.5827L105.17 38.152H105.801V37.152ZM103.881 35.008L103.363 35.8636L103.373 35.8694L103.881 35.008ZM97.0007 36.032L97.7474 36.6972L97.7474 36.6972L97.0007 36.032ZM97.0007 45.44L96.2541 46.1052L97.0007 45.44ZM103.881 46.464L103.373 45.6026L103.363 45.6085L103.881 46.464ZM105.801 44.32V43.32H105.17L104.898 43.8893L105.801 44.32ZM111.817 44.32L112.784 44.5745L113.114 43.32H111.817V44.32ZM108.009 50.08L108.599 50.8876L108.604 50.8832L108.009 50.08ZM95.3047 50.72L94.8063 51.5869L94.8127 51.5906L94.8191 51.5942L95.3047 50.72ZM91.3047 46.656L92.1789 46.1704L92.1789 46.1704L91.3047 46.656ZM90.8647 40.736C90.8647 38.6661 91.3111 36.8636 92.1789 35.3016L90.4306 34.3304C89.3784 36.2244 88.8647 38.3686 88.8647 40.736H90.8647ZM92.1814 35.2971C93.0534 33.7082 94.2543 32.4902 95.795 31.6236L94.8145 29.8804C92.9418 30.9338 91.4761 32.4252 90.4281 34.3349L92.1814 35.2971ZM95.7986 31.6216C97.362 30.7337 99.141 30.28 101.161 30.28V28.28C98.8285 28.28 96.7035 28.8076 94.8109 29.8824L95.7986 31.6216ZM101.161 30.28C103.642 30.28 105.708 30.9311 107.413 32.1952L108.604 30.5888C106.512 29.0368 104.013 28.28 101.161 28.28V30.28ZM107.413 32.1952C109.117 33.4588 110.264 35.1792 110.85 37.4065L112.784 36.8975C112.09 34.2608 110.698 32.1412 108.604 30.5888L107.413 32.1952ZM111.817 36.152H105.801V38.152H111.817V36.152ZM106.703 36.7213C106.176 35.6175 105.405 34.7462 104.389 34.1466L103.373 35.8694C104.02 36.2511 104.529 36.8092 104.898 37.5827L106.703 36.7213ZM104.399 34.1525C103.416 33.5577 102.305 33.272 101.097 33.272V35.272C101.979 35.272 102.724 35.4769 103.363 35.8635L104.399 34.1525ZM101.097 33.272C99.1495 33.272 97.5041 33.9637 96.2541 35.3668L97.7474 36.6972C98.588 35.7537 99.6733 35.272 101.097 35.272V33.272ZM96.2541 35.3668C95.0078 36.7657 94.4327 38.5915 94.4327 40.736H96.4327C96.4327 38.9552 96.903 37.645 97.7474 36.6972L96.2541 35.3668ZM94.4327 40.736C94.4327 42.8805 95.0078 44.7063 96.2541 46.1052L97.7474 44.7748C96.903 43.827 96.4327 42.5168 96.4327 40.736H94.4327ZM96.2541 46.1052C97.5041 47.5083 99.1495 48.2 101.097 48.2V46.2C99.6733 46.2 98.588 45.7183 97.7474 44.7748L96.2541 46.1052ZM101.097 48.2C102.305 48.2 103.416 47.9143 104.399 47.3195L103.363 45.6085C102.724 45.9951 101.979 46.2 101.097 46.2V48.2ZM104.389 47.3254C105.405 46.7258 106.176 45.8545 106.703 44.7507L104.898 43.8893C104.529 44.6628 104.02 45.2209 103.373 45.6026L104.389 47.3254ZM105.801 45.32H111.817V43.32H105.801V45.32ZM110.85 44.0655C110.264 46.2928 109.117 48.0132 107.413 49.2768L108.604 50.8832C110.698 49.3308 112.09 47.2112 112.784 44.5745L110.85 44.0655ZM107.419 49.2724C105.714 50.5176 103.645 51.16 101.161 51.16V53.16C104.01 53.16 106.506 52.4157 108.599 50.8876L107.419 49.2724ZM101.161 51.16C99.1372 51.16 97.3552 50.7152 95.7904 49.8458L94.8191 51.5942C96.7103 52.6448 98.8323 53.16 101.161 53.16V51.16ZM95.8032 49.8531C94.2548 48.9627 93.051 47.7402 92.1789 46.1704L90.4306 47.1416C91.4785 49.0278 92.9414 50.5146 94.8063 51.5869L95.8032 49.8531ZM92.1789 46.1704C91.3111 44.6084 90.8647 42.8059 90.8647 40.736H88.8647C88.8647 43.1034 89.3784 45.2476 90.4306 47.1416L92.1789 46.1704Z" fill="#00FFF0"></path>
<defs>
<filter id="SvgjsFilter1000" x="-1.51472" y="-1.51471" width="86.0294" height="86.0294" filterUnits="userSpaceOnUse" color-interpolation-filters="sRGB">
<feFlood flood-opacity="0" result="BackgroundImageFix"></feFlood>
<feGaussianBlur in="BackgroundImageFix" stdDeviation="2"></feGaussianBlur>
<feComposite in2="SourceAlpha" operator="in" result="effect1_backgroundBlur_101_2"></feComposite>
<feBlend mode="normal" in="SourceGraphic" in2="effect1_backgroundBlur_101_2" result="shape"></feBlend>
</filter>
</defs>
</svg><style>@media (prefers-color-scheme: light) { :root { filter: none; } }
</style></svg>