<svg width="32" height="31" viewBox="0 0 32 31" fill="none" xmlns="http://www.w3.org/2000/svg">
<g id="android-globe">
<path id="Shape" fill-rule="evenodd" clip-rule="evenodd" d="M16.1939 0.171631C7.73832 0.171631 0.883789 7.04107 0.883789 15.5149C0.883789 23.9888 7.73832 30.8582 16.1939 30.8582C24.6495 30.8582 31.5041 23.9888 31.5041 15.5149C31.5041 7.04107 24.6495 0.171631 16.1939 0.171631ZM14.6078 28.5714C11.703 28.2228 9.01532 26.9196 6.91451 24.8143C4.43589 22.3303 3.07093 19.0278 3.07093 15.5149C3.07093 12.3526 4.17768 9.36107 6.20664 6.98323C6.2589 7.6115 6.38793 8.28505 6.35488 8.76652C6.23417 10.5218 6.06134 11.6203 7.08653 13.1011C7.48592 13.6779 7.58404 14.5048 7.77843 15.1723C7.96856 15.8255 8.7281 16.168 9.25196 16.5704C10.3089 17.3825 11.32 18.3264 12.4407 19.0411C13.1804 19.5129 13.6424 19.7475 13.4258 20.6521C13.2516 21.3796 13.2029 21.8277 12.8274 22.4758C12.7128 22.6736 13.26 23.9451 13.4421 24.1276C13.994 24.6806 14.5416 25.188 15.1432 25.6859C16.0759 26.4581 15.0526 27.4616 14.6078 28.5714ZM25.4733 24.8143C23.5865 26.7052 21.2263 27.9483 18.6606 28.4348C19.0242 27.5337 19.6716 26.7331 20.2722 26.2689C20.7946 25.865 21.4488 25.088 21.7217 24.4726C21.9943 23.858 22.3555 23.3252 22.7211 22.76C23.2411 21.956 21.4389 20.7435 20.8549 20.4894C19.5407 19.9176 18.5515 19.1461 17.3836 18.3225C16.5514 17.7358 14.862 18.6289 13.9226 18.218C12.6359 17.6549 11.5758 16.6766 10.4573 15.8325C9.30319 14.9614 9.35898 13.9458 9.35898 12.6608C10.263 12.6942 11.5491 12.41 12.1493 13.1386C12.3386 13.3685 12.9898 14.3957 13.4257 14.0307C13.7819 13.7325 13.1619 12.5371 13.0421 12.256C12.6737 11.3918 13.8815 11.0548 14.4997 10.4688C15.3065 9.70431 17.0369 8.50532 16.9002 7.95731C16.7634 7.40931 15.1687 5.85668 14.232 6.09893C14.0917 6.13522 12.8558 7.43387 12.617 7.63761C12.6234 7.21375 12.6297 6.78997 12.6362 6.36611C12.6402 6.09849 12.138 5.82378 12.1613 5.65117C12.2202 5.21492 13.4319 4.42319 13.7333 4.07576C13.5222 3.9435 12.8016 3.3232 12.5835 3.41423C12.0554 3.63479 11.4591 3.78674 10.931 4.00723C10.931 3.8237 10.9088 3.65131 10.8823 3.48106C11.9404 3.01154 13.0601 2.68505 14.2174 2.51089L15.2541 2.9284L15.986 3.79891L16.7165 4.55376L17.355 4.75993L18.3692 3.80135L18.1077 3.11702V2.50189C20.1135 2.79386 22.0077 3.54376 23.6666 4.70011C23.3698 4.72674 23.0437 4.77048 22.6757 4.8174C22.5237 4.7274 22.3287 4.68654 22.1631 4.62391C22.6438 5.65973 23.1452 6.68124 23.6546 7.70334C24.1988 8.79514 25.4059 9.96625 25.6179 11.1188C25.8677 12.4772 25.6944 13.7112 25.8311 15.3095C25.9627 16.8486 27.5626 18.5974 27.5626 18.5974C27.5626 18.5974 28.3014 18.8496 28.9158 18.7617C28.3431 21.0324 27.1689 23.1149 25.4733 24.8143Z" fill="black" fill-opacity="0.54"/>
</g>
</svg>
